<?xml version="1.0" encoding="utf-8" standalone="yes"?>
<!DOCTYPE svg PUBLIC "-//W3C//DTD SVG 1.1//EN" "http://www.w3.org/Graphics/SVG/1.1/DTD/svg11.dtd">
<svg width="734" height="584" viewBox="0 0 734 584" style="fill:none;stroke:none;fill-rule:evenodd;clip-rule:evenodd;stroke-linecap:round;stroke-linejoin:round;stroke-miterlimit:1.5;" version="1.1" xmlns="http://www.w3.org/2000/svg" xmlns:xlink="http://www.w3.org/1999/xlink"><style class="text-font-style fontImports" data-font-family="Montserrat">@import url('https://fonts.googleapis.com/css2?family=Montserrat:wght@400;700&amp;display=block');</style><g id="items" style="isolation: isolate"><g id="blend" style="mix-blend-mode: normal"><g id="g-root--1.cu_sy_qssoireqrnra-fill" data-item-order="-120245" transform="translate(207.46539306640625, 105)"></g><g id="g-root-0.cu_sy_qssoireqrnrg-fill" data-item-order="-120242" transform="translate(309, 213)"></g><g id="g-root-5.cu_sy_qssoireqrnrb-fill" data-item-order="-120238" transform="translate(243, 111)"></g><g id="g-root-4.cu_sy_qssoireqrnrj-fill" data-item-order="-120234" transform="translate(183, 285)"></g><g id="g-root-3.cu_sy_v8m6n7eqrnr8-fill" data-item-order="-120230" transform="translate(333, 393)"></g><g id="g-root-2.cu_sy_v8m6n7eqrnr5-fill" data-item-order="-120226" transform="translate(483, 285)"></g><g id="g-root-1.cu_sy_qssoireqrnre-fill" data-item-order="-120222" transform="translate(423, 111)"></g><g id="g-root-tx_communic_qssoireqrnr8-fill" data-item-order="0" transform="translate(99, 99)"><g id="tx_communic_qssoireqrnr8-fill" stroke="none" fill="#000000"><g><text style="font: bold 20px Montserrat, sans-serif; white-space: pre;" font-weight="bold" font-size="20px" font-family="Montserrat, sans-serif"><tspan x="17.5" y="34" dominant-baseline="ideographic">Envisioning </tspan><tspan x="64.39" y="58" dominant-baseline="ideographic">African </tspan><tspan x="64.39" y="82" dominant-baseline="ideographic">futures</tspan></text></g></g></g><g id="g-root-tx_envision_qssoireqrnrc-fill" data-item-order="0" transform="translate(483, 99)"><g id="tx_envision_qssoireqrnrc-fill" stroke="none" fill="#000000"><g><text style="font: bold 20px Montserrat, sans-serif; white-space: pre;" font-weight="bold" font-size="20px" font-family="Montserrat, sans-serif"><tspan x="12" y="34" dominant-baseline="ideographic">Fostering </tspan><tspan x="12" y="58" dominant-baseline="ideographic">academic </tspan><tspan x="12" y="82" dominant-baseline="ideographic">excellence</tspan></text></g></g></g><g id="g-root-2_qssoireqrnrd-fill" data-item-order="0" transform="translate(255, 123)"></g><g id="g-root-3_qssoireqrnrf-fill" data-item-order="0" transform="translate(435, 123)"></g><g id="g-root-2_qssoireqrnrh-fill" data-item-order="0" transform="translate(333, 237)"></g><g id="g-root-tx_connecti_qssoireqrnri-fill" data-item-order="0" transform="translate(27, 261)"><g id="tx_connecti_qssoireqrnri-fill" stroke="none" fill="#000000"><g><text style="font: bold 20px Montserrat, sans-serif; white-space: pre;" font-weight="bold" font-size="20px" font-family="Montserrat, sans-serif"><tspan x="12.64" y="34" dominant-baseline="ideographic">Aligning R4D </tspan><tspan x="104.71" y="58" dominant-baseline="ideographic">with </tspan><tspan x="12.34" y="82" dominant-baseline="ideographic">development </tspan><tspan x="58" y="106" dominant-baseline="ideographic">priorities</tspan></text></g></g></g><g id="g-root-tx_aligning_v8m6n7eqrnr6-fill" data-item-order="0" transform="translate(543, 273)"><g id="tx_aligning_v8m6n7eqrnr6-fill" stroke="none" fill="#000000"><g><text style="font: bold 20px Montserrat, sans-serif; white-space: pre;" font-weight="bold" font-size="20px" font-family="Montserrat, sans-serif"><tspan x="12" y="34" dominant-baseline="ideographic">Translating </tspan><tspan x="12" y="58" dominant-baseline="ideographic">innovation to </tspan><tspan x="12" y="82" dominant-baseline="ideographic">Impact</tspan></text></g></g></g><g id="g-root-ware_v8m6n7eqrnr4-fill" data-item-order="0" transform="translate(195, 297)"></g><g id="g-root-1_v8m6n7eqrnr7-fill" data-item-order="0" transform="translate(495, 297)"></g><g id="g-root-mega_v8m6n7eqrnr9-fill" data-item-order="0" transform="translate(345, 405)"></g><g id="g-root-tx_fosterin_v8m6n7eqrnra-fill" data-item-order="0" transform="translate(267, 453)"><g id="tx_fosterin_v8m6n7eqrnra-fill" stroke="none" fill="#000000"><g><text style="font: bold 20px Montserrat, sans-serif; white-space: pre;" font-weight="bold" font-size="20px" font-family="Montserrat, sans-serif"><tspan x="13.86" y="34" dominant-baseline="ideographic">Communication </tspan><tspan x="28.11" y="58" dominant-baseline="ideographic">and outreach</tspan></text></g></g></g><g id="g-root--1.cu_sy_qssoireqrnra-stroke" data-item-order="-120245" transform="translate(207.46539306640625, 105)"><g id="-1.cu_sy_qssoireqrnra-stroke" fill="none" stroke-linecap="round" stroke-linejoin="round" stroke-miterlimit="4" stroke="#de8431" stroke-width="2" stroke-dasharray="5.0, 7.0"><g><path d="M 137.923537 311.5745C 115.465137 289.0213 99.534637 232.3476 99.534637 166C 99.534637 79.8436 126.397537 10 159.534637 10C 192.671737 10 219.534637 79.8436 219.534637 166C 219.534637 232.3479 203.604037 289.0218 181.145437 311.5748M 225.900953 35.829346C 194.525853 41.893446 149.287353 78.025746 110.993153 130.733246C 60.351653 200.435246 41.031153 272.729546 67.839653 292.207046C 94.648153 311.684546 157.433653 270.969546 208.075153 201.267546C 247.371953 147.180146 267.808953 91.531746 262.467053 60.212546M 56.601729 60.214569C 51.261429 91.534269 71.698329 147.181069 110.994129 201.266969C 161.635529 270.968969 224.421129 311.684069 251.229629 292.206569C 278.038029 272.729069 258.717629 200.434769 208.076129 130.732769C 169.780929 78.023969 124.541229 41.891069 93.166029 35.828369M 26.563904 230.911328C 54.471004 245.992728 114.072704 243.859728 178.075304 223.064028C 260.015004 196.440228 318.139104 149.309228 307.899104 117.793928C 297.659204 86.278728 222.932904 82.313428 140.993304 108.937228C 77.844904 129.455328 28.841304 162.153328 14.373504 190.496928M 304.694569 190.494984C 290.225669 162.151884 241.222769 129.454684 178.075569 108.936984C 96.135969 82.313184 21.409669 86.278484 11.169769 117.793684C 0.929869 149.308984 59.053869 196.439984 140.993569 223.063784C 204.996069 243.859484 264.597669 245.992484 292.504869 230.911184"></path></g></g></g><g id="g-root-0.cu_sy_qssoireqrnrg-stroke" data-item-order="-120242" transform="translate(309, 213)"><g id="0.cu_sy_qssoireqrnrg-stroke" fill="none" stroke-linecap="round" stroke-linejoin="round" stroke-miterlimit="4" stroke="#de8431" stroke-width="2"><g><path d="M 102.3346 39.636C 112.4768 64.1213 100.8493 92.1925 76.364 102.3346C 51.8787 112.4768 23.8075 100.8493 13.6654 76.364C 3.5232 51.8787 15.1507 23.8075 39.636 13.6654C 64.1213 3.5232 92.1925 15.1507 102.3346 39.636Z"></path></g></g></g><g id="g-root-5.cu_sy_qssoireqrnrb-stroke" data-item-order="-120238" transform="translate(243, 111)"><g id="5.cu_sy_qssoireqrnrb-stroke" fill="none" stroke-linecap="round" stroke-linejoin="round" stroke-miterlimit="4" stroke="#de8431" stroke-width="2"><g><path d="M 24.818015 56.167308C 12.575315 51.096208 6.761615 37.060708 11.832715 24.818008C 16.903815 12.575308 30.939315 6.761608 43.182015 11.832708C 55.424715 16.903808 61.238415 30.939308 56.167315 43.182008C 51.096215 55.424708 37.060715 61.238408 24.818015 56.167308Z"></path></g></g></g><g id="g-root-4.cu_sy_qssoireqrnrj-stroke" data-item-order="-120234" transform="translate(183, 285)"><g id="4.cu_sy_qssoireqrnrj-stroke" fill="none" stroke-linecap="round" stroke-linejoin="round" stroke-miterlimit="4" stroke="#de8431" stroke-width="2"><g><path d="M 43.182 56.1673C 30.9393 61.2384 16.9038 55.4247 11.8327 43.182C 6.7616 30.9393 12.5753 16.9038 24.818 11.8327C 37.0607 6.7616 51.0962 12.5753 56.1673 24.818C 61.2384 37.0607 55.4247 51.0962 43.182 56.1673Z"></path></g></g></g><g id="g-root-3.cu_sy_v8m6n7eqrnr8-stroke" data-item-order="-120230" transform="translate(333, 393)"><g id="3.cu_sy_v8m6n7eqrnr8-stroke" fill="none" stroke-linecap="round" stroke-linejoin="round" stroke-miterlimit="4" stroke="#de8431" stroke-width="2"><g><path d="M 56.1673 43.182C 51.0962 55.4247 37.0607 61.2384 24.818 56.1673C 12.5753 51.0962 6.7616 37.0607 11.8327 24.818C 16.9038 12.5753 30.9393 6.7616 43.182 11.8327C 55.4247 16.9038 61.2384 30.9393 56.1673 43.182Z"></path></g></g></g><g id="g-root-2.cu_sy_v8m6n7eqrnr5-stroke" data-item-order="-120226" transform="translate(483, 285)"><g id="2.cu_sy_v8m6n7eqrnr5-stroke" fill="none" stroke-linecap="round" stroke-linejoin="round" stroke-miterlimit="4" stroke="#de8431" stroke-width="2"><g><path d="M 56.1673 24.818C 61.2384 37.0607 55.4247 51.0962 43.182 56.1673C 30.9393 61.2384 16.9038 55.4247 11.8327 43.182C 6.7616 30.9393 12.5753 16.9038 24.818 11.8327C 37.0607 6.7616 51.0962 12.5753 56.1673 24.818Z"></path></g></g></g><g id="g-root-1.cu_sy_qssoireqrnre-stroke" data-item-order="-120222" transform="translate(423, 111)"><g id="1.cu_sy_qssoireqrnre-stroke" fill="none" stroke-linecap="round" stroke-linejoin="round" stroke-miterlimit="4" stroke="#de8431" stroke-width="2"><g><path d="M 24.818 56.167308C 12.5753 51.096208 6.7616 37.060708 11.8327 24.818008C 16.9038 12.575308 30.9393 6.761608 43.182 11.832708C 55.4247 16.903808 61.2384 30.939308 56.1673 43.182008C 51.0962 55.424708 37.0607 61.238408 24.818 56.167308Z"></path></g></g></g><g id="g-root-tx_communic_qssoireqrnr8-stroke" data-item-order="0" transform="translate(99, 99)"></g><g id="g-root-tx_envision_qssoireqrnrc-stroke" data-item-order="0" transform="translate(483, 99)"></g><g id="g-root-2_qssoireqrnrd-stroke" data-item-order="0" transform="translate(255, 123)"><g id="2_qssoireqrnrd-stroke" fill="none" stroke-linecap="round" stroke-linejoin="round" stroke-miterlimit="4" stroke="#de8431" stroke-width="2"><g><path d="M 33.5 22C 33.488959 28.34866 28.335355 33.48735 21.98669 33.479992C 15.638026 33.472635 10.496346 28.322013 10.50002 21.973345C 10.503694 15.624677 15.651331 10.48001 22 10.48C 25.053458 10.479995 27.981563 11.694344 30.138808 13.85534C 32.296052 16.016336 33.505311 18.946547 33.5 22ZM 30.15 13.87L 28.94 16.87C 28.668949 17.545501 28.05232 18.020421 27.33 18.11L 25.2 18.4C 25.037967 18.418052 24.895525 18.515512 24.82 18.66C 24.745279 18.80423 24.745279 18.97577 24.82 19.12L 25.36 20.21C 25.44692 20.377811 25.621028 20.482276 25.81 20.48C 26.15 20.48 26.44 20.43 26.62 20.72C 26.705518 20.872139 26.705518 21.057861 26.62 21.21C 24.91 24.65 25 24.44 25 24.6L 25 27.05C 24.998001 27.641365 24.734395 28.201528 24.28 28.58L 22.38 30.16C 22.279981 30.246641 22.149171 30.289145 22.017328 30.277844C 21.885484 30.266543 21.763816 30.202398 21.68 30.1L 20.15 28.26C 19.744481 27.77027 19.595987 27.116897 19.75 26.5L 19.96 25.66C 19.994588 25.549305 19.994588 25.430694 19.96 25.32L 19.18 23.76C 19.094081 23.589934 18.920527 23.481945 18.73 23.48L 17 23.48C 16.116635 23.482625 15.336173 22.905409 15.08 22.06L 14.41 19.87C 14.360933 19.706534 14.398636 19.529332 14.51 19.4L 16.24 17.4C 16.708317 16.847201 17.438974 16.590897 18.15 16.73L 19.45 17C 19.52 17 19.27 17 23 17C 23.276142 17 23.5 16.776142 23.5 16.5L 23.5 15.34C 23.500793 14.520392 23.001442 13.783255 22.24 13.48C 21.97 13.37 21.67 13.3 21.65 12.94C 21.633542 12.747779 21.731408 12.56379 21.9 12.47L 24.68 10.88"></path></g></g></g><g id="g-root-3_qssoireqrnrf-stroke" data-item-order="0" transform="translate(435, 123)"><g id="3_qssoireqrnrf-stroke" fill="none" stroke-linecap="round" stroke-linejoin="round" stroke-miterlimit="4" stroke="#de8431" stroke-width="2"><g><path d="M 10 10M 12.95983 14.75L 12.35715 14.75C 11.45313 14.75 10.75 15.35 10.75 16.25L 10.75 27.85C 10.75 28.65 11.35267 29.35 12.15624 29.35C 18.08258 29.65 21.4978 31.55 22 33.25C 22.5022 31.55 25.9174 29.65 31.8438 29.35C 32.6473 29.35 33.25 28.65 33.25 27.85L 33.25 16.25C 33.25 15.35 32.5469 14.75 31.6429 14.75L 31.0402 14.75M 22 19.5625L 22 33.25M 27.7 10.75L 22 16.45L 19.50002 13.95L 15.00002 18.14999M 23.5 10.75L 27.7 10.75L 27.7 14.95"></path></g></g></g><g id="g-root-2_qssoireqrnrh-stroke" data-item-order="0" transform="translate(333, 237)"><g id="2_qssoireqrnrh-stroke" fill="none" stroke-linecap="round" stroke-linejoin="round" stroke-miterlimit="4" stroke="#b27338" stroke-width="2"><g><path d="M 12 39.059998L 18 39.059998C 18 39.059998 19 39.059998 19 40.059998L 19 54.059998C 19 54.059998 19 55.059998 18 55.059998L 12 55.059998C 12 55.059998 11 55.059998 11 54.059998L 11 40.059998C 11 40.059998 11 39.059998 12 39.059998M 19 52C 40.459999 59.16 32.540001 59.220001 57 47C 55.621639 45.13509 53.221638 44.335091 51 45L 42.139999 48M 19 41.059998L 25 41.059998C 28.403698 41.182304 31.628391 42.615498 34 45.060001L 40 45.060001C 41.104568 45.060001 42 45.955429 42 47.060001C 42 48.16457 41.104568 49.060001 40 49.060001L 29 49.060001M 23.700001 34.239998C 19.805557 26.474066 22.819866 17.019396 30.490599 12.940637C 38.161331 8.861877 47.68528 11.649581 51.946026 19.220739C 56.206776 26.791899 53.647266 36.379692 46.18 40.82M 49.82 16.280001C 49.419102 18.421238 48.162334 20.306385 46.34 21.5C 43.560001 20.799999 40.779999 22.880001 41.48 22.880001C 42.18 22.880001 42.860001 25.66 42.860001 25.66C 43.560001 26.360001 44.959999 25.66 44.959999 25.66C 46.700001 27.4 42.18 30.540001 42.18 31.24C 42.18 31.940001 43.919998 32.279999 42.860001 33.239998C 42.297077 33.834686 41.615765 34.304794 40.860001 34.620003C 40.860001 38.099998 37.379997 38.099998 36.700001 38.099998C 36.02 38.099998 34.599998 35.32 34.599998 34.620003C 34.599998 33.919998 35.299999 33.239998 35.299999 32.620003C 35.299999 32 33.900002 30.620001 33.900002 30.620001C 33.900002 27.84 31.9 28.620001 29.74 28.620001C 27.58 28.620001 27.559999 25.66 27.559999 25.66C 27.559999 25.66 27.559999 20.799999 31.040001 20.1C 34.52 19.4 34.52 20.799999 34.52 20.799999C 35.919998 22.18 38.700001 20.799999 40.080002 20.799999C 40.080002 20.799999 40.779999 15.92 39.400002 16.619999C 38.02 17.32 36.760002 16.780001 36.620003 15.24C 36.400002 13.059999 42.619999 11.76 42.619999 11.76"></path></g></g></g><g id="g-root-tx_connecti_qssoireqrnri-stroke" data-item-order="0" transform="translate(27, 261)"></g><g id="g-root-tx_aligning_v8m6n7eqrnr6-stroke" data-item-order="0" transform="translate(543, 273)"></g><g id="g-root-ware_v8m6n7eqrnr4-stroke" data-item-order="0" transform="translate(195, 297)"><g id="ware_v8m6n7eqrnr4-stroke" fill="none" stroke-linecap="round" stroke-linejoin="round" stroke-miterlimit="4" stroke="#de8431" stroke-width="2"><g><path d="M 18.54999 22.75C 22.8578 22.75 26.35 21.2277 26.35 19.34995C 26.35 17.47218 22.8578 15.94995 18.54999 15.94995C 14.24217 15.94995 10.75 17.47218 10.75 19.34995C 10.75 21.2277 14.24217 22.75 18.54999 22.75ZM 10.75 19.6499L 10.75 29.8499C 10.75 31.7499 14.24999 33.2499 18.54999 33.2499C 22.85 33.2499 26.35 31.7499 26.35 29.8499L 26.35 19.6499M 24.75 14.25L 24.75 13.25C 24.75 12.65 25.15 12.25 25.75 12.25L 30.75 12.25C 31.35 12.25 31.75 12.65 31.75 13.25L 31.75 16.25C 31.75 16.85 31.35 17.25 30.75 17.25L 28.25 17.25M 25.25 10.75L 25.25 12.35828M 28.25 10.75L 28.25 12.25M 31.25 10.75L 31.25 12.35828M 28.25 17.25L 28.25 18.75M 10 10M 31.25 17.13818L 31.25 18.75M 33.25 16.25L 31.75 16.25M 33.25 13.25L 31.75 13.25M 24.75 13.25L 23.25 13.25M 10 10M 16.75336 30.4429L 16.75336 28.3293M 16.75336 28.3293L 16.75336 25.3701L 18.65566 25.3701C 19.47281 25.3701 20.1352 26.0325 20.1352 26.8497L 20.1352 26.8497C 20.1352 27.6668 19.47281 28.3293 18.65566 28.3293L 16.75336 28.3293ZM 10 10M 18.86707 28.3292L 20.3466 30.4429"></path></g></g></g><g id="g-root-1_v8m6n7eqrnr7-stroke" data-item-order="0" transform="translate(495, 297)"><g id="1_v8m6n7eqrnr7-stroke" fill="none" stroke-linecap="round" stroke-linejoin="round" stroke-miterlimit="4" stroke="#de8431" stroke-width="2"><g><path d="M 17.754 21.5L 14.754 21.5M 19.254 16C 19.207471 14.362806 17.891194 13.046529 16.254 13C 14.616806 13.046529 13.300529 14.362806 13.254 16C 13.2769 17.039905 13.847213 17.990426 14.754 18.499999L 14.754 19.5L 17.754 19.5L 17.754 18.5C 18.660496 17.990128 19.230699 17.039789 19.254 16ZM 16.254 10.5L 16.254 11.5M 20.143 12.111L 19.436 12.818M 21.754 15.5L 20.754 15.5M 12.365 12.111L 13.072 12.818M 10.754 15.5L 11.754 15.5M 23.26 12.619C 27.866789 13.35865 31.254555 17.334212 31.254 22M 20.256 31.383C 15.64608 30.645872 12.254934 26.668482 12.256 22M 23.254 28.5C 23.254 31.261424 25.492577 33.5 28.254 33.5C 31.015424 33.5 33.254 31.261424 33.254 28.5C 33.254 25.738577 31.015424 23.5 28.254 23.5C 25.492577 23.5 23.254 25.738577 23.254 28.5ZM 28.254 30.5L 28.254 31.5M 28.254 25.5L 28.254 26.5M 26.254 30.5L 29.254 30.5C 29.806285 30.5 30.254 30.052285 30.254 29.5C 30.254 28.947715 29.806285 28.5 29.254 28.5L 27.254 28.5C 26.701715 28.5 26.254 28.052285 26.254 27.5C 26.254 26.947715 26.701715 26.5 27.254 26.5L 30.254 26.5M 19.254 28.5L 20.754 31.5L 18.254 33M 24.254 15L 23.254 12.5L 25.254 11"></path></g></g></g><g id="g-root-mega_v8m6n7eqrnr9-stroke" data-item-order="0" transform="translate(345, 405)"><g id="mega_v8m6n7eqrnr9-stroke" fill="none" stroke-linecap="round" stroke-linejoin="round" stroke-miterlimit="4" stroke="#de8431" stroke-width="2"><g><path d="M 33.5 10.5L 33.5 21M 21.5 17L 33.5 20L 33.5 11.5L 21.5 14.5L 21.5 17ZM 21.5 13.5L 21.5 18M 25 17.875L 25 19.5C 25 20.604569 25.895431 21.5 27 21.5C 28.104569 21.5 29 20.604569 29 19.5L 29 18.875M 17.5 33.5L 18 27.5L 20.5 27.5L 20.5 24C 20.5 21.238576 18.261424 19 15.5 19C 12.738576 19 10.5 21.238576 10.5 24L 10.5 27.5L 13 27.5L 13.5 33.5ZM 12 14C 12 15.932997 13.567004 17.5 15.5 17.5C 17.432997 17.5 19 15.932997 19 14C 19 12.067004 17.432997 10.5 15.5 10.5C 13.567004 10.5 12 12.067004 12 14Z"></path></g></g></g><g id="g-root-tx_fosterin_v8m6n7eqrnra-stroke" data-item-order="0" transform="translate(267, 453)"></g></g></g></svg>