<?xml version="1.0" encoding="utf-8" standalone="yes"?>
<!DOCTYPE svg PUBLIC "-//W3C//DTD SVG 1.1//EN" "http://www.w3.org/Graphics/SVG/1.1/DTD/svg11.dtd">
<svg width="769" height="584" viewBox="0 0 769 584" style="fill:none;stroke:none;fill-rule:evenodd;clip-rule:evenodd;stroke-linecap:round;stroke-linejoin:round;stroke-miterlimit:1.5;" version="1.1" xmlns="http://www.w3.org/2000/svg" xmlns:xlink="http://www.w3.org/1999/xlink"><style class="text-font-style fontImports" data-font-family="Montserrat">@import url('https://fonts.googleapis.com/css2?family=Montserrat:wght@400;700&amp;display=block');</style><g id="items" style="isolation: isolate"><g id="blend" style="mix-blend-mode: normal"><g id="g-root--1.cu_sy_1ly0xitf0soat-fill" data-item-order="-120245" transform="translate(231.46539306640625, 105)"></g><g id="g-root-0.cu_sy_1hi7fedf0sp37-fill" data-item-order="-120242" transform="translate(333, 213)"></g><g id="g-root-5.cu_sy_1d2dx9xf0sp3i-fill" data-item-order="-120238" transform="translate(267, 111)"></g><g id="g-root-4.cu_sy_1hi7fedf0sp3a-fill" data-item-order="-120234" transform="translate(207, 285)"></g><g id="g-root-3.cu_sy_1d2dx9xf0spvn-fill" data-item-order="-120230" transform="translate(357, 393)"></g><g id="g-root-2.cu_sy_1d2dx9xf0spvk-fill" data-item-order="-120226" transform="translate(507, 285)"></g><g id="g-root-1.cu_sy_1hi7fedf0sp35-fill" data-item-order="-120222" transform="translate(447, 111)"></g><g id="g-root-2_1luwqgldcqvb7-fill" data-item-order="-900" transform="translate(366, 243)"><g id="2_1luwqgldcqvb7-fill" stroke="none" fill="#de8431"><g><path d="M 36.25 15C 36.11409 14.826412 35.889297 14.748224 35.675003 14.8C 35.454613 14.834657 35.271652 14.988728 35.199997 15.2L 33.75 19.075001C 33.411186 19.919376 32.6404 20.513025 31.737499 20.625L 28.1875 20.625C 27.987217 20.653513 27.81163 20.773651 27.7125 20.949999C 27.624987 21.131676 27.624987 21.343323 27.7125 21.525L 28.8125 24.375C 28.919899 24.587582 29.136841 24.722569 29.375 24.725L 30.4125 24.725C 30.628437 24.724567 30.829304 24.835632 30.943752 25.018749C 31.058199 25.201866 31.070013 25.431087 30.975 25.625L 27.5 32.737499C 27.148535 33.826988 26.101973 34.538559 24.959576 34.46476C 23.817181 34.390961 22.870867 33.550652 22.6625 32.424999L 21.4125 27.225C 21.305101 27.012417 21.08816 26.87743 20.85 26.875L 20.3125 26.875C 18.068844 26.875 16.25 25.056156 16.25 22.8125C 16.25 20.568844 18.068844 18.75 20.3125 18.75L 25.4375 18.75C 25.782679 18.75 26.0625 18.470179 26.0625 18.125L 26.0625 16.6875C 26.06044 15.67063 25.442667 14.756325 24.5 14.375L 24.137501 14.225C 23.932693 14.147343 23.784943 13.96623 23.75 13.75C 23.737476 13.514756 23.858292 13.292456 24.0625 13.175L 27.5 11.35C 27.738153 11.226023 27.873102 10.96612 27.8375 10.7C 27.791727 10.433618 27.579906 10.226842 27.3125 10.1875C 26.548399 10.059365 25.774761 9.996637 25 10C 17.9289 10.032771 11.84099 14.999458 10.389107 21.919977C 8.937222 28.840494 12.515718 35.835136 18.97744 38.707012C 25.439163 41.578888 33.029022 39.547962 37.192989 33.832813C 41.356956 28.117664 40.964043 20.270613 36.25 15Z"></path></g></g></g><g id="g-root-tx_communic_1ly0xitf0soar-fill" data-item-order="0" transform="translate(105, 87)"><g id="tx_communic_1ly0xitf0soar-fill" stroke="none" fill="#000000"><g><text style="font: bold 20px Montserrat, sans-serif; white-space: pre;" font-weight="bold" font-size="20px" font-family="Montserrat, sans-serif"><tspan x="15.49" y="34" dominant-baseline="ideographic">Aligning R4D </tspan><tspan x="61.53" y="58" dominant-baseline="ideographic">with </tspan><tspan x="15.34" y="82" dominant-baseline="ideographic">development </tspan><tspan x="38.17" y="106" dominant-baseline="ideographic">priorities</tspan></text></g></g></g><g id="g-root-2_1hi7fedf0sp34-fill" data-item-order="0" transform="translate(279, 123)"></g><g id="g-root-1_1d2dx9xf0spvm-fill" data-item-order="0" transform="translate(459, 123)"></g><g id="g-root-tx_envision_1d2dx9xf0sp3j-fill" data-item-order="0" transform="translate(507, 111)"><g id="tx_envision_1d2dx9xf0sp3j-fill" stroke="none" fill="#000000"><g><text style="font: bold 20px Montserrat, sans-serif; white-space: pre;" font-weight="bold" font-size="20px" font-family="Montserrat, sans-serif"><tspan x="32.76" y="34" dominant-baseline="ideographic">Envisioning </tspan><tspan x="15.56" y="58" dominant-baseline="ideographic">African futures</tspan></text></g></g></g><g id="g-root-tx_connecti_1hi7fedf0sp39-fill" data-item-order="0" transform="translate(75, 273)"><g id="tx_connecti_1hi7fedf0sp39-fill" stroke="none" fill="#000000"><g><text style="font: bold 20px Montserrat, sans-serif; white-space: pre;" font-weight="bold" font-size="20px" font-family="Montserrat, sans-serif"><tspan x="19.61" y="34" dominant-baseline="ideographic">Fostering </tspan><tspan x="18.48" y="58" dominant-baseline="ideographic">academic </tspan><tspan x="13.91" y="82" dominant-baseline="ideographic">excellence</tspan></text></g></g></g><g id="g-root-tx_aligning_1d2dx9xf0spvl-fill" data-item-order="0" transform="translate(567, 273)"><g id="tx_aligning_1d2dx9xf0spvl-fill" stroke="none" fill="#000000"><g><text style="font: bold 20px Montserrat, sans-serif; white-space: pre;" font-weight="bold" font-size="20px" font-family="Montserrat, sans-serif"><tspan x="44.91" y="34" dominant-baseline="ideographic">Connecting </tspan><tspan x="36.14" y="58" dominant-baseline="ideographic">Innovation to </tspan><tspan x="13.49" y="82" dominant-baseline="ideographic">Entrepreneurship</tspan></text></g></g></g><g id="g-root-3_1hi7fedf0sp36-fill" data-item-order="0" transform="translate(219, 297)"></g><g id="g-root-star_144w0rpdcv30s-fill" data-item-order="0" transform="translate(519, 297)"></g><g id="g-root-mega_1d2dx9xf0spvo-fill" data-item-order="0" transform="translate(369, 405)"></g><g id="g-root-tx_fosterin_1d2dx9xf0spvp-fill" data-item-order="0" transform="translate(291, 453)"><g id="tx_fosterin_1d2dx9xf0spvp-fill" stroke="none" fill="#000000"><g><text style="font: bold 20px Montserrat, sans-serif; white-space: pre;" font-weight="bold" font-size="20px" font-family="Montserrat, sans-serif"><tspan x="13.86" y="34" dominant-baseline="ideographic">Communication </tspan><tspan x="28.11" y="58" dominant-baseline="ideographic">and outreach</tspan></text></g></g></g><g id="g-root--1.cu_sy_1ly0xitf0soat-stroke" data-item-order="-120245" transform="translate(231.46539306640625, 105)"><g id="-1.cu_sy_1ly0xitf0soat-stroke" fill="none" stroke-linecap="round" stroke-linejoin="round" stroke-miterlimit="4" stroke="#de8431" stroke-width="2" stroke-dasharray="5.0, 7.0"><g><path d="M 137.923537 311.5745C 115.465137 289.0213 99.534637 232.3476 99.534637 166C 99.534637 79.8436 126.397537 10 159.534637 10C 192.671737 10 219.534637 79.8436 219.534637 166C 219.534637 232.3479 203.604037 289.0218 181.145437 311.5748M 225.900953 35.829346C 194.525853 41.893446 149.287353 78.025746 110.993153 130.733246C 60.351653 200.435246 41.031153 272.729546 67.839653 292.207046C 94.648153 311.684546 157.433653 270.969546 208.075153 201.267546C 247.371953 147.180146 267.808953 91.531746 262.467053 60.212546M 56.601729 60.214569C 51.261429 91.534269 71.698329 147.181069 110.994129 201.266969C 161.635529 270.968969 224.421129 311.684069 251.229629 292.206569C 278.038029 272.729069 258.717629 200.434769 208.076129 130.732769C 169.780929 78.023969 124.541229 41.891069 93.166029 35.828369M 26.563904 230.911328C 54.471004 245.992728 114.072704 243.859728 178.075304 223.064028C 260.015004 196.440228 318.139104 149.309228 307.899104 117.793928C 297.659204 86.278728 222.932904 82.313428 140.993304 108.937228C 77.844904 129.455328 28.841304 162.153328 14.373504 190.496928M 304.694569 190.494984C 290.225669 162.151884 241.222769 129.454684 178.075569 108.936984C 96.135969 82.313184 21.409669 86.278484 11.169769 117.793684C 0.929869 149.308984 59.053869 196.439984 140.993569 223.063784C 204.996069 243.859484 264.597669 245.992484 292.504869 230.911184"></path></g></g></g><g id="g-root-0.cu_sy_1hi7fedf0sp37-stroke" data-item-order="-120242" transform="translate(333, 213)"><g id="0.cu_sy_1hi7fedf0sp37-stroke" fill="none" stroke-linecap="round" stroke-linejoin="round" stroke-miterlimit="4" stroke="#de8431" stroke-width="2"><g><path d="M 102.3346 39.636C 112.4768 64.1213 100.8493 92.1925 76.364 102.3346C 51.8787 112.4768 23.8075 100.8493 13.6654 76.364C 3.5232 51.8787 15.1507 23.8075 39.636 13.6654C 64.1213 3.5232 92.1925 15.1507 102.3346 39.636Z"></path></g></g></g><g id="g-root-5.cu_sy_1d2dx9xf0sp3i-stroke" data-item-order="-120238" transform="translate(267, 111)"><g id="5.cu_sy_1d2dx9xf0sp3i-stroke" fill="none" stroke-linecap="round" stroke-linejoin="round" stroke-miterlimit="4" stroke="#de8431" stroke-width="2"><g><path d="M 24.818015 56.167308C 12.575315 51.096208 6.761615 37.060708 11.832715 24.818008C 16.903815 12.575308 30.939315 6.761608 43.182015 11.832708C 55.424715 16.903808 61.238415 30.939308 56.167315 43.182008C 51.096215 55.424708 37.060715 61.238408 24.818015 56.167308Z"></path></g></g></g><g id="g-root-4.cu_sy_1hi7fedf0sp3a-stroke" data-item-order="-120234" transform="translate(207, 285)"><g id="4.cu_sy_1hi7fedf0sp3a-stroke" fill="none" stroke-linecap="round" stroke-linejoin="round" stroke-miterlimit="4" stroke="#de8431" stroke-width="2"><g><path d="M 43.182 56.1673C 30.9393 61.2384 16.9038 55.4247 11.8327 43.182C 6.7616 30.9393 12.5753 16.9038 24.818 11.8327C 37.0607 6.7616 51.0962 12.5753 56.1673 24.818C 61.2384 37.0607 55.4247 51.0962 43.182 56.1673Z"></path></g></g></g><g id="g-root-3.cu_sy_1d2dx9xf0spvn-stroke" data-item-order="-120230" transform="translate(357, 393)"><g id="3.cu_sy_1d2dx9xf0spvn-stroke" fill="none" stroke-linecap="round" stroke-linejoin="round" stroke-miterlimit="4" stroke="#de8431" stroke-width="2"><g><path d="M 56.1673 43.182C 51.0962 55.4247 37.0607 61.2384 24.818 56.1673C 12.5753 51.0962 6.7616 37.0607 11.8327 24.818C 16.9038 12.5753 30.9393 6.7616 43.182 11.8327C 55.4247 16.9038 61.2384 30.9393 56.1673 43.182Z"></path></g></g></g><g id="g-root-2.cu_sy_1d2dx9xf0spvk-stroke" data-item-order="-120226" transform="translate(507, 285)"><g id="2.cu_sy_1d2dx9xf0spvk-stroke" fill="none" stroke-linecap="round" stroke-linejoin="round" stroke-miterlimit="4" stroke="#de8431" stroke-width="2"><g><path d="M 56.1673 24.818C 61.2384 37.0607 55.4247 51.0962 43.182 56.1673C 30.9393 61.2384 16.9038 55.4247 11.8327 43.182C 6.7616 30.9393 12.5753 16.9038 24.818 11.8327C 37.0607 6.7616 51.0962 12.5753 56.1673 24.818Z"></path></g></g></g><g id="g-root-1.cu_sy_1hi7fedf0sp35-stroke" data-item-order="-120222" transform="translate(447, 111)"><g id="1.cu_sy_1hi7fedf0sp35-stroke" fill="none" stroke-linecap="round" stroke-linejoin="round" stroke-miterlimit="4" stroke="#de8431" stroke-width="2"><g><path d="M 24.818 56.167308C 12.5753 51.096208 6.7616 37.060708 11.8327 24.818008C 16.9038 12.575308 30.9393 6.761608 43.182 11.832708C 55.4247 16.903808 61.2384 30.939308 56.1673 43.182008C 51.0962 55.424708 37.0607 61.238408 24.818 56.167308Z"></path></g></g></g><g id="g-root-2_1luwqgldcqvb7-stroke" data-item-order="-900" transform="translate(366, 243)"></g><g id="g-root-tx_communic_1ly0xitf0soar-stroke" data-item-order="0" transform="translate(105, 87)"></g><g id="g-root-2_1hi7fedf0sp34-stroke" data-item-order="0" transform="translate(279, 123)"><g id="2_1hi7fedf0sp34-stroke" fill="none" stroke-linecap="round" stroke-linejoin="round" stroke-miterlimit="4" stroke="#de8431" stroke-width="2"><g><path d="M 10.857142 20.148571C 10.856164 25.280777 15.016365 29.441772 20.148571 29.441772C 25.280777 29.441772 29.440979 25.280777 29.440001 20.148571C 29.440979 15.016365 25.280777 10.855371 20.148571 10.855371C 15.016365 10.855371 10.856164 15.016365 10.857142 20.148571M 33.142857 33.142857L 26.714287 26.714287"></path></g></g></g><g id="g-root-1_1d2dx9xf0spvm-stroke" data-item-order="0" transform="translate(459, 123)"><g id="1_1d2dx9xf0spvm-stroke" fill="none" stroke-linecap="round" stroke-linejoin="round" stroke-miterlimit="4" stroke="#de8431" stroke-width="2"><g><path d="M 28 23.714287C 28.011086 20.753099 25.86017 18.22665 22.935148 17.765144C 20.010124 17.303637 17.185825 19.045103 16.284641 21.865852C 15.383459 24.6866 16.674925 27.742985 19.325714 29.062859L 19.325714 32.011429C 19.335012 32.373959 19.631636 32.662975 19.994286 32.662857L 24.005714 32.662857C 24.368362 32.662975 24.664988 32.373959 24.674286 32.011429L 24.674286 29.011429C 26.688292 28.008856 27.972202 25.963863 28 23.714287ZM 22 11.388572L 22 13.96M 28.857143 13.84L 27.039999 15.674286M 32.765713 19.154285L 30.194286 19.154285M 15.142858 13.84L 16.959999 15.674286M 11.234285 19.154285L 13.805715 19.154285"></path></g></g></g><g id="g-root-tx_envision_1d2dx9xf0sp3j-stroke" data-item-order="0" transform="translate(507, 111)"></g><g id="g-root-tx_connecti_1hi7fedf0sp39-stroke" data-item-order="0" transform="translate(75, 273)"></g><g id="g-root-tx_aligning_1d2dx9xf0spvl-stroke" data-item-order="0" transform="translate(567, 273)"></g><g id="g-root-3_1hi7fedf0sp36-stroke" data-item-order="0" transform="translate(219, 297)"><g id="3_1hi7fedf0sp36-stroke" fill="none" stroke-linecap="round" stroke-linejoin="round" stroke-miterlimit="4" stroke="#de8431" stroke-width="2"><g><path d="M 24.5 18.25L 20.934 19.422C 20.344225 19.612322 19.707289 19.316901 19.471632 18.743732C 19.235976 18.170562 19.480916 17.512562 20.034 17.233L 23.489 15.506C 24.084586 15.210385 24.775374 15.172068 25.400001 15.4L 30.5 17.25L 30.5 24.25L 24.494 25.391M 13.5 24.25L 16 24.25L 19.59 28.274C 19.96403 28.708455 20.568882 28.864322 21.106297 28.664742C 21.643713 28.465162 22.000212 27.952279 22.000001 27.379001L 22 26.75L 22.179 26.822C 22.700527 27.030316 23.291414 26.966459 23.756395 26.65153C 24.221376 26.336601 24.499927 25.811593 24.499999 25.249999L 25 25.25C 25.568159 25.25 26.087553 24.928997 26.341641 24.420821C 26.595729 23.912645 26.540895 23.304527 26.2 22.85L 23 18.75M 20.552 16.969L 20.186 16.669C 19.589181 16.226817 18.806013 16.125043 18.116 16.4L 13.5 18.25M 10.5 16.25L 12.5 16.25C 13.052285 16.25 13.5 16.697715 13.5 17.25L 13.5 24.25C 13.5 24.802285 13.052285 25.25 12.5 25.25L 10.5 25.25M 33.5 25.25L 31.5 25.25C 30.947715 25.25 30.5 24.802285 30.5 24.25L 30.5 17.25C 30.5 16.697715 30.947715 16.25 31.5 16.25L 33.5 16.25M 22 26.75L 21 25.75M 23 23.75L 24.5 25.25"></path></g></g></g><g id="g-root-star_144w0rpdcv30s-stroke" data-item-order="0" transform="translate(519, 297)"><g id="star_144w0rpdcv30s-stroke" fill="none" stroke-linecap="round" stroke-linejoin="round" stroke-miterlimit="4" stroke="#de8431" stroke-width="2"><g><path d="M 19.788572 17.388571C 16.497143 15.142858 13.428572 16.857143 10.857142 19.497143L 16.548571 22.925714M 26.611427 24.21143C 28.857143 27.502857 27.142857 30.571428 24.502857 33.142857L 21.074286 27.451429M 16.548571 22.908571L 21.091429 27.451429C 24.725716 25.274286 28.857143 23.165714 30.742859 21.211428C 34.822857 17.131428 32.457142 11.542857 32.457142 11.542857C 32.457142 11.542857 26.868572 9.177143 22.788572 13.257143C 20.834286 15.142858 18.70857 19.29143 16.548571 22.908571ZM 19.05143 18.605715L 25.394285 24.948572M 27.142857 16C 27.142857 16.473387 27.526613 16.857143 28 16.857143C 28.473387 16.857143 28.857143 16.473387 28.857143 16C 28.857143 15.526613 28.473387 15.142858 28 15.142858C 27.526613 15.142858 27.142857 15.526613 27.142857 16M 16.308571 31.325714C 15.314285 32.285713 10.857142 33.142857 10.857142 33.142857C 10.857142 33.142857 11.714286 28.685715 12.674286 27.691429C 13.315328 27.003477 14.280762 26.720291 15.191847 26.952967C 16.102932 27.185642 16.81436 27.897068 17.047035 28.808155C 17.279711 29.71924 16.996525 30.684673 16.308571 31.325716Z"></path></g></g></g><g id="g-root-mega_1d2dx9xf0spvo-stroke" data-item-order="0" transform="translate(369, 405)"><g id="mega_1d2dx9xf0spvo-stroke" fill="none" stroke-linecap="round" stroke-linejoin="round" stroke-miterlimit="4" stroke="#de8431" stroke-width="2"><g><path d="M 20.85 27.17C 19.74996 27.77 19.34997 29.07 19.94997 30.07C 20.55 31.17 21.85 31.57 22.85 30.97L 23.15 30.77C 28.85 27.67 29.75 28.07 33.25 27.87L 29.15 20.17C 26.95 23.27 26.85 23.87 20.85 27.17ZM 22.5828 26.1985L 25.35 32.07C 25.95 33.17 27.25 33.57 28.25 32.97M 19.45004 14.55005C 20.4994 14.55005 21.35 13.69937 21.35 12.65002C 21.35 11.60068 20.4994 10.750061 19.45004 10.750061C 18.4007 10.750061 17.55005 11.60068 17.55005 12.65002C 17.55005 13.69937 18.4007 14.55005 19.45004 14.55005ZM 12.65002 18.45007C 13.69937 18.45007 14.55002 17.59939 14.55002 16.55005C 14.55002 15.50071 13.69937 14.65002 12.65002 14.65002C 11.60068 14.65002 10.75 15.50071 10.75 16.55005C 10.75 17.59939 11.60068 18.45007 12.65002 18.45007ZM 26.25 18.45007C 27.2993 18.45007 28.15 17.59939 28.15 16.55005C 28.15 15.50071 27.2993 14.65002 26.25 14.65002C 25.2006 14.65002 24.35 15.50071 24.35 16.55005C 24.35 17.59939 25.2006 18.45007 26.25 18.45007ZM 17.74996 25.2501L 15.64999 25.2501C 14.84999 25.2501 14.34997 24.35 14.84997 23.65L 18.74996 18.45007C 19.14996 17.95007 19.94997 17.95007 20.35 18.45007L 22.25 20.9501"></path></g></g></g><g id="g-root-tx_fosterin_1d2dx9xf0spvp-stroke" data-item-order="0" transform="translate(291, 453)"></g></g></g></svg>